<svg xmlns="http://www.w3.org/2000/svg" viewBox="0 0 64 64" width="64" height="64">
  <defs>
    <linearGradient id="leafGradient" x1="0%" y1="0%" x2="100%" y2="100%">
      <stop offset="0%" style="stop-color:#86efac;stop-opacity:1" />
      <stop offset="100%" style="stop-color:#4ade80;stop-opacity:1" />
    </linearGradient>
  </defs>
  
  <!-- Leaf shape -->
  <path d="M32 8 C16 8, 8 20, 8 32 C8 44, 16 56, 32 56 L32 32 L32 8 Z" 
        fill="url(#leafGradient)" stroke="#22c55e" stroke-width="2"/>
  <path d="M32 8 C48 8, 56 20, 56 32 C56 44, 48 56, 32 56 L32 32 L32 8 Z" 
        fill="url(#leafGradient)" opacity="0.7" stroke="#22c55e" stroke-width="2"/>
  
  <!-- Vein -->
  <line x1="32" y1="10" x2="32" y2="54" stroke="#16a34a" stroke-width="2" stroke-linecap="round"/>
  
  <!-- Side veins -->
  <path d="M32 20 Q24 24, 20 32" stroke="#16a34a" stroke-width="1.5" fill="none" opacity="0.6"/>
  <path d="M32 28 Q24 32, 18 40" stroke="#16a34a" stroke-width="1.5" fill="none" opacity="0.6"/>
  <path d="M32 20 Q40 24, 44 32" stroke="#16a34a" stroke-width="1.5" fill="none" opacity="0.6"/>
  <path d="M32 28 Q40 32, 46 40" stroke="#16a34a" stroke-width="1.5" fill="none" opacity="0.6"/>
</svg>
