<svg xmlns="http://www.w3.org/2000/svg" width="64" height="64" viewBox="0 0 64 64" fill="none">
  <defs>
    <linearGradient id="leaf-light-bg" x1="0%" y1="0%" x2="100%" y2="100%">
      <stop offset="0%" style="stop-color:#2c3e50;stop-opacity:1" />
      <stop offset="100%" style="stop-color:#1a1a1a;stop-opacity:1" />
    </linearGradient>
    <linearGradient id="leaf-light-stroke" x1="0%" y1="0%" x2="100%" y2="100%">
      <stop offset="0%" style="stop-color:#86efac;stop-opacity:1" />
      <stop offset="100%" style="stop-color:#4ade80;stop-opacity:1" />
    </linearGradient>
    <pattern id="carbon-texture-leaf-light" x="0" y="0" width="4" height="4" patternUnits="userSpaceOnUse">
      <rect width="4" height="4" fill="#1a1a1a"/>
      <circle cx="1" cy="1" r="0.5" fill="#2c3e50" opacity="0.3"/>
      <circle cx="3" cy="3" r="0.5" fill="#2c3e50" opacity="0.3"/>
    </pattern>
    <filter id="leaf-light-glow">
      <feGaussianBlur stdDeviation="2" result="coloredBlur"/>
      <feMerge>
        <feMergeNode in="coloredBlur"/>
        <feMergeNode in="SourceGraphic"/>
      </feMerge>
    </filter>
    <filter id="leaf-light-shadow">
      <feGaussianBlur in="SourceAlpha" stdDeviation="4"/>
      <feOffset dx="0" dy="3" result="offsetblur"/>
      <feComponentTransfer>
        <feFuncA type="linear" slope="0.3"/>
      </feComponentTransfer>
      <feMerge>
        <feMergeNode/>
        <feMergeNode in="SourceGraphic"/>
      </feMerge>
    </filter>
  </defs>
  
  <!-- Background full area with carbon gradient and texture -->
  <rect x="0" y="0" width="64" height="64" fill="url(#leaf-light-bg)"/>
  <rect x="0" y="0" width="64" height="64" fill="url(#carbon-texture-leaf-light)" opacity="0.5"/>
  
  <!-- Icon centered and scaled up with light green -->
  <g transform="translate(14, 14) scale(1.5)" filter="url(#leaf-light-shadow)">
    <path d="M9 18c6.218 0 10.5-3.288 11-12V4h-4.014c-9 0-11.986 4-12 9 0 1 0 3 2 5h3z" 
          fill="url(#leaf-light-stroke)" 
          fill-opacity="0.2" 
          stroke="url(#leaf-light-stroke)" 
          stroke-width="2" 
          stroke-linecap="round" 
          stroke-linejoin="round"
          filter="url(#leaf-light-glow)"/>
    <path d="M5 21c.5-4.5 2.5-8 7-10" 
          fill="none" 
          stroke="url(#leaf-light-stroke)" 
          stroke-width="2" 
          stroke-linecap="round" 
          stroke-linejoin="round"
          filter="url(#leaf-light-glow)"/>
  </g>
</svg>
